<?xml version="1.0" encoding="UTF-8" standalone="no"?>
<!-- Created with Inkscape (http://www.inkscape.org/) -->

<svg
   xmlns:dc="http://purl.org/dc/elements/1.1/"
   xmlns:cc="http://creativecommons.org/ns#"
   xmlns:rdf="http://www.w3.org/1999/02/22-rdf-syntax-ns#"
   xmlns:svg="http://www.w3.org/2000/svg"
   xmlns="http://www.w3.org/2000/svg"
   xmlns:sodipodi="http://sodipodi.sourceforge.net/DTD/sodipodi-0.dtd"
   xmlns:inkscape="http://www.inkscape.org/namespaces/inkscape"
   width="124"
   height="124"
   viewBox="0 0 32.808333 32.808334"
   version="1.1"
   id="svg8"
   inkscape:version="0.92.3 (2405546, 2018-03-11)"
   sodipodi:docname="folder.svg">
  <defs
     id="defs2" />
  <sodipodi:namedview
     id="base"
     pagecolor="#ffffff"
     bordercolor="#666666"
     borderopacity="1.0"
     inkscape:pageopacity="0.0"
     inkscape:pageshadow="2"
     inkscape:zoom="1.979899"
     inkscape:cx="44.540799"
     inkscape:cy="94.796526"
     inkscape:document-units="mm"
     inkscape:current-layer="layer1"
     showgrid="false"
     inkscape:window-width="1299"
     inkscape:window-height="713"
     inkscape:window-x="67"
     inkscape:window-y="27"
     inkscape:window-maximized="1"
     units="px" />
  <metadata
     id="metadata5">
    <rdf:RDF>
      <cc:Work
         rdf:about="">
        <dc:format>image/svg+xml</dc:format>
        <dc:type
           rdf:resource="http://purl.org/dc/dcmitype/StillImage" />
        <dc:title></dc:title>
      </cc:Work>
    </rdf:RDF>
  </metadata>
  <g
     inkscape:label="Layer 1"
     inkscape:groupmode="layer"
     id="layer1"
     transform="translate(0,-264.19165)">
    <rect
       style="fill:#000000;fill-opacity:1;stroke:#000000;stroke-width:0.05204961;stroke-linecap:square;stroke-linejoin:miter;stroke-miterlimit:4;stroke-dasharray:none;stroke-dashoffset:0;stroke-opacity:0.99462364"
       id="rect815"
       width="32.122044"
       height="20.373703"
       x="0.02602436"
       y="271.72989"
       ry="2.0922081" />
    <path
       style="fill:#fcdaa3;fill-opacity:1;stroke:#000000;stroke-width:0.13082075;stroke-linecap:square;stroke-linejoin:miter;stroke-miterlimit:4;stroke-dasharray:none;stroke-dashoffset:0;stroke-opacity:0.99462364"
       d="m 2.7130853,271.13505 1.112793,-2.00763 h 5.6113662 5.9087925 l 1.335863,2.00763 h 3.492203 3.492204 3.492204 3.492203 c 0.144886,0 0.286241,0.0146 0.422683,0.0424 0.136444,0.0278 0.267975,0.0688 0.393213,0.12155 0.125238,0.0528 0.244184,0.11741 0.355455,0.19246 0.111271,0.075 0.214868,0.16054 0.30941,0.25508 0.09454,0.0945 0.180028,0.19814 0.255078,0.30941 0.07505,0.11127 0.139663,0.23021 0.192458,0.35545 0.0528,0.12524 0.09377,0.25677 0.121553,0.39321 0.02778,0.13645 0.04236,0.2778 0.04236,0.42269 v 16.18928 c 0,1.15909 -0.933125,2.09221 -2.092209,2.09221 H 2.7130853 c -1.1590832,0 -2.09220812,-0.93312 -2.09220812,-2.09221 V 273.2273 c 0,-0.14489 0.0145811,-0.28624 0.042359,-0.42269 0.0277791,-0.13644 0.0687568,-0.26797 0.12155254,-0.39321 0.0527955,-0.12524 0.11740877,-0.24418 0.19245857,-0.35545 0.0750498,-0.11127 0.16053611,-0.21487 0.25507781,-0.30941 0.094542,-0.0945 0.1981385,-0.18003 0.3094098,-0.25508 0.1112712,-0.0751 0.2302163,-0.13966 0.3554547,-0.19246 0.1252383,-0.0528 0.2567694,-0.0938 0.3932125,-0.12155 0.1364431,-0.0278 0.2777978,-0.0424 0.4226832,-0.0424 z"
       id="rect4520"
       inkscape:connector-curvature="0"
       sodipodi:nodetypes="scscccccssssssssssssssssssssss" />
  </g>
</svg>
