<?xml version="1.0" encoding="UTF-8" standalone="no"?>
<!-- Created with Inkscape (http://www.inkscape.org/) -->

<svg
   xmlns:dc="http://purl.org/dc/elements/1.1/"
   xmlns:cc="http://creativecommons.org/ns#"
   xmlns:rdf="http://www.w3.org/1999/02/22-rdf-syntax-ns#"
   xmlns:svg="http://www.w3.org/2000/svg"
   xmlns="http://www.w3.org/2000/svg"
   xmlns:sodipodi="http://sodipodi.sourceforge.net/DTD/sodipodi-0.dtd"
   xmlns:inkscape="http://www.inkscape.org/namespaces/inkscape"
   width="124"
   height="124"
   viewBox="0 0 32.808332 32.808334"
   version="1.1"
   id="svg881"
   inkscape:version="0.92.3 (2405546, 2018-03-11)"
   sodipodi:docname="plus.svg">
  <defs
     id="defs875" />
  <sodipodi:namedview
     id="base"
     pagecolor="#ffffff"
     bordercolor="#666666"
     borderopacity="1.0"
     inkscape:pageopacity="0.0"
     inkscape:pageshadow="2"
     inkscape:zoom="11.2"
     inkscape:cx="58.659963"
     inkscape:cy="89.627106"
     inkscape:document-units="mm"
     inkscape:current-layer="layer1"
     showgrid="false"
     units="px"
     inkscape:window-width="2560"
     inkscape:window-height="1385"
     inkscape:window-x="1920"
     inkscape:window-y="27"
     inkscape:window-maximized="1" />
  <metadata
     id="metadata878">
    <rdf:RDF>
      <cc:Work
         rdf:about="">
        <dc:format>image/svg+xml</dc:format>
        <dc:type
           rdf:resource="http://purl.org/dc/dcmitype/StillImage" />
        <dc:title></dc:title>
      </cc:Work>
    </rdf:RDF>
  </metadata>
  <g
     inkscape:label="Layer 1"
     inkscape:groupmode="layer"
     id="layer1"
     transform="translate(0,-264.19165)">
    <path
       style="fill:#000000;fill-opacity:1;stroke:none;stroke-width:12.73407555;stroke-linecap:round;stroke-linejoin:round;stroke-miterlimit:4;stroke-dasharray:none;stroke-opacity:1;paint-order:fill markers stroke"
       d="M 16.411476,264.19896 A 16.398686,16.398686 0 0 0 1.6666667e-7,280.59582 16.398686,16.398686 0 0 0 16.411476,296.99267 16.398686,16.398686 0 0 0 32.808333,280.59582 16.398686,16.398686 0 0 0 16.411476,264.19896 Z m 0,1.08059 c 2.121049,0 3.821615,1.6997 3.821615,3.82161 v 7.65785 h 7.672465 c 2.121051,0 3.821616,1.71404 3.821616,3.83623 0,2.11819 -1.699705,3.83624 -3.821616,3.83624 h -7.672465 v 7.65784 c 0,2.12105 -1.699706,3.82133 -3.821615,3.82133 -2.12105,0 -3.836233,-1.6997 -3.836233,-3.82133 v -7.65784 H 4.9176822 c -2.12105,0 -3.83652,-1.71404 -3.83652,-3.83624 0,-2.12104 1.714037,-3.83623 3.83652,-3.83623 h 7.6575608 v -7.65785 c 0,-2.12105 1.714037,-3.82161 3.836233,-3.82161 z"
       id="circle834"
       inkscape:connector-curvature="0" />
  </g>
</svg>
